<svg xmlns="http://www.w3.org/2000/svg" xmlns:xlink="http://www.w3.org/1999/xlink" width="250" zoomAndPan="magnify" viewBox="0 0 187.5 105.749997" height="141" preserveAspectRatio="xMidYMid meet" version="1.0"><defs><filter x="0%" y="0%" width="100%" height="100%" id="b676f36731"><feColorMatrix values="0 0 0 0 1 0 0 0 0 1 0 0 0 0 1 0 0 0 1 0" color-interpolation-filters="sRGB"/></filter><g/><mask id="95c887304e"><g filter="url(#b676f36731)"><rect x="-18.75" width="225" fill="#000000" y="-10.575" height="126.899996" fill-opacity="0.25"/></g></mask><clipPath id="4cf9e1d531"><path d="M 1.027344 24 L 36 24 L 36 57.1875 L 1.027344 57.1875 Z M 1.027344 24 " clip-rule="nonzero"/></clipPath><clipPath id="bad54e7b49"><path d="M 38 23 L 72.75 23 L 72.75 57 L 38 57 Z M 38 23 " clip-rule="nonzero"/></clipPath><clipPath id="671ee30a90"><path d="M 41 0.335938 L 54 0.335938 L 54 23 L 41 23 Z M 41 0.335938 " clip-rule="nonzero"/></clipPath><clipPath id="f4bd9d99fb"><rect x="0" width="73" y="0" height="58"/></clipPath><clipPath id="2c32942525"><path d="M 5.53125 49 L 41 49 L 41 82.691406 L 5.53125 82.691406 Z M 5.53125 49 " clip-rule="nonzero"/></clipPath><clipPath id="073bd4df14"><path d="M 42 49 L 77.339844 49 L 77.339844 82.691406 L 42 82.691406 Z M 42 49 " clip-rule="nonzero"/></clipPath><clipPath id="36ec37dbb1"><path d="M 46 25.839844 L 59 25.839844 L 59 49 L 46 49 Z M 46 25.839844 " clip-rule="nonzero"/></clipPath></defs><g mask="url(#95c887304e)"><g transform="matrix(1, 0, 0, 1, 6, 27)"><g clip-path="url(#f4bd9d99fb)"><g clip-path="url(#4cf9e1d531)"><path fill="#000000" d="M 24.25 24.226562 L 8.902344 31.421875 C 8.097656 31.804688 7.339844 32.257812 6.628906 32.785156 C 5.914062 33.3125 5.257812 33.902344 4.660156 34.558594 C 4.066406 35.214844 3.539062 35.925781 3.078125 36.683594 C 2.621094 37.445312 2.242188 38.242188 1.9375 39.074219 C 1.636719 39.910156 1.417969 40.765625 1.285156 41.644531 C 1.152344 42.519531 1.105469 43.402344 1.144531 44.289062 C 1.183594 45.175781 1.308594 46.050781 1.519531 46.910156 C 1.730469 47.773438 2.023438 48.605469 2.398438 49.410156 C 2.777344 50.214844 3.230469 50.972656 3.757812 51.683594 C 4.285156 52.398438 4.875 53.054688 5.535156 53.648438 C 6.191406 54.246094 6.898438 54.773438 7.65625 55.234375 C 8.417969 55.691406 9.214844 56.070312 10.050781 56.371094 C 10.882812 56.675781 11.738281 56.890625 12.617188 57.027344 C 13.492188 57.160156 14.375 57.207031 15.261719 57.167969 C 16.148438 57.128906 17.023438 57.003906 17.882812 56.792969 C 18.746094 56.582031 19.578125 56.289062 20.382812 55.914062 L 35.6875 48.738281 L 35.769531 48.699219 L 24.285156 24.210938 Z M 24.921875 28.773438 L 11.460938 35.085938 C 11.308594 35.15625 11.152344 35.195312 10.984375 35.203125 C 10.816406 35.210938 10.65625 35.1875 10.5 35.128906 C 10.34375 35.074219 10.203125 34.988281 10.078125 34.875 C 9.957031 34.761719 9.859375 34.632812 9.789062 34.480469 C 9.71875 34.328125 9.679688 34.171875 9.671875 34.003906 C 9.664062 33.835938 9.6875 33.675781 9.746094 33.519531 C 9.800781 33.359375 9.886719 33.222656 10 33.097656 C 10.113281 32.976562 10.242188 32.878906 10.394531 32.808594 L 23.855469 26.496094 Z M 24.921875 28.773438 " fill-opacity="1" fill-rule="evenodd"/></g><g clip-path="url(#bad54e7b49)"><path fill="#000000" d="M 38.023438 48.65625 L 53.578125 55.492188 C 54.394531 55.847656 55.234375 56.121094 56.097656 56.308594 C 56.964844 56.5 57.84375 56.601562 58.730469 56.621094 C 59.617188 56.640625 60.496094 56.570312 61.371094 56.414062 C 62.246094 56.261719 63.09375 56.023438 63.921875 55.699219 C 64.746094 55.378906 65.535156 54.980469 66.285156 54.503906 C 67.03125 54.027344 67.726562 53.484375 68.371094 52.871094 C 69.011719 52.257812 69.585938 51.589844 70.097656 50.863281 C 70.609375 50.136719 71.042969 49.367188 71.402344 48.558594 C 71.757812 47.746094 72.027344 46.90625 72.21875 46.039062 C 72.410156 45.171875 72.511719 44.292969 72.53125 43.40625 C 72.546875 42.519531 72.480469 41.640625 72.324219 40.765625 C 72.167969 39.894531 71.929688 39.042969 71.609375 38.214844 C 71.285156 37.390625 70.886719 36.601562 70.410156 35.851562 C 69.933594 35.105469 69.390625 34.410156 68.777344 33.769531 C 68.164062 33.125 67.492188 32.550781 66.769531 32.039062 C 66.042969 31.53125 65.273438 31.097656 64.460938 30.738281 L 48.90625 23.898438 Z M 63.027344 32.234375 C 63.179688 32.304688 63.3125 32.398438 63.429688 32.519531 C 63.542969 32.640625 63.628906 32.777344 63.691406 32.933594 C 63.75 33.085938 63.777344 33.25 63.777344 33.414062 C 63.773438 33.582031 63.734375 33.742188 63.667969 33.894531 C 63.601562 34.046875 63.507812 34.179688 63.386719 34.296875 C 63.265625 34.410156 63.128906 34.5 62.972656 34.558594 C 62.816406 34.621094 62.65625 34.648438 62.488281 34.644531 C 62.324219 34.640625 62.164062 34.605469 62.011719 34.539062 L 48.398438 28.558594 L 49.414062 26.253906 Z M 63.027344 32.234375 " fill-opacity="1" fill-rule="evenodd"/></g><g clip-path="url(#671ee30a90)"><path fill="#000000" d="M 43.597656 22.863281 C 37.207031 9.246094 47.261719 10.09375 49.148438 0.289062 C 55.636719 8.527344 56.046875 18.347656 44.914062 22.945312 C 43.984375 16.242188 50.828125 10.71875 49.714844 5.996094 C 49.886719 9.449219 43.414062 15.925781 43.597656 22.863281 Z M 43.597656 22.863281 " fill-opacity="1" fill-rule="evenodd"/></g><path fill="#000000" d="M 28.039062 23.578125 C 16.644531 19.34375 22.921875 14.136719 18.457031 7.417969 C 26.863281 8.488281 32.664062 13.929688 28.847656 22.882812 C 24.515625 19.542969 25.335938 12.480469 22.011719 10.390625 C 24.078125 12.277344 24.007812 19.679688 28.039062 23.578125 Z M 28.039062 23.578125 " fill-opacity="1" fill-rule="evenodd"/><path fill="#000000" d="M 35.5625 38.414062 C 24.9375 27.625 34.765625 25.066406 33.273438 15.125 C 42.195312 20.769531 45.875 29.960938 36.855469 38.050781 C 33.726562 32 38.375 24.460938 35.734375 20.351562 C 37.042969 23.574219 33.066406 31.890625 35.5625 38.414062 Z M 35.5625 38.414062 " fill-opacity="1" fill-rule="evenodd"/><path fill="#000000" d="M 39.804688 6.105469 C 40.058594 6.097656 40.300781 6.140625 40.539062 6.230469 C 40.773438 6.324219 40.984375 6.453125 41.167969 6.628906 C 41.351562 6.804688 41.492188 7.003906 41.597656 7.238281 C 41.699219 7.46875 41.753906 7.710938 41.761719 7.960938 C 41.769531 8.214844 41.726562 8.460938 41.636719 8.695312 C 41.542969 8.933594 41.414062 9.140625 41.238281 9.324219 C 41.0625 9.507812 40.863281 9.652344 40.628906 9.753906 C 40.398438 9.859375 40.15625 9.914062 39.90625 9.921875 C 39.652344 9.925781 39.40625 9.886719 39.171875 9.792969 C 38.933594 9.703125 38.722656 9.570312 38.539062 9.398438 C 38.359375 9.222656 38.214844 9.019531 38.109375 8.789062 C 38.007812 8.558594 37.953125 8.316406 37.945312 8.0625 C 37.941406 7.808594 37.980469 7.566406 38.074219 7.328125 C 38.164062 7.09375 38.296875 6.882812 38.46875 6.699219 C 38.644531 6.515625 38.847656 6.375 39.078125 6.269531 C 39.308594 6.167969 39.550781 6.113281 39.804688 6.105469 Z M 39.804688 6.105469 " fill-opacity="1" fill-rule="nonzero"/><path fill="#000000" d="M 37.992188 41.21875 C 37.992188 41.0625 37.964844 40.914062 37.90625 40.769531 C 37.84375 40.625 37.761719 40.5 37.652344 40.390625 C 37.539062 40.28125 37.414062 40.195312 37.269531 40.136719 C 37.128906 40.078125 36.976562 40.046875 36.824219 40.046875 C 36.667969 40.046875 36.519531 40.078125 36.375 40.136719 C 36.230469 40.195312 36.105469 40.28125 35.996094 40.390625 C 35.886719 40.5 35.800781 40.625 35.742188 40.769531 C 35.683594 40.914062 35.652344 41.0625 35.652344 41.21875 C 35.652344 41.375 35.683594 41.523438 35.742188 41.667969 C 35.800781 41.808594 35.886719 41.9375 35.996094 42.046875 C 36.105469 42.15625 36.234375 42.238281 36.375 42.300781 C 36.519531 42.359375 36.667969 42.386719 36.824219 42.386719 C 36.980469 42.386719 37.128906 42.359375 37.273438 42.296875 C 37.414062 42.238281 37.542969 42.152344 37.652344 42.042969 C 37.761719 41.933594 37.84375 41.808594 37.902344 41.664062 C 37.964844 41.519531 37.992188 41.371094 37.992188 41.21875 Z M 37.992188 41.21875 " fill-opacity="1" fill-rule="evenodd"/><path fill="#000000" d="M 35.132812 12.011719 C 35.132812 11.847656 35.101562 11.6875 35.039062 11.53125 C 34.972656 11.378906 34.882812 11.242188 34.765625 11.125 C 34.648438 11.007812 34.511719 10.917969 34.359375 10.851562 C 34.203125 10.789062 34.042969 10.757812 33.875 10.757812 C 33.710938 10.757812 33.550781 10.789062 33.394531 10.851562 C 33.242188 10.917969 33.105469 11.007812 32.988281 11.125 C 32.871094 11.242188 32.777344 11.378906 32.714844 11.53125 C 32.652344 11.6875 32.621094 11.847656 32.621094 12.011719 C 32.621094 12.179688 32.652344 12.339844 32.714844 12.496094 C 32.777344 12.648438 32.871094 12.785156 32.988281 12.902344 C 33.105469 13.019531 33.242188 13.109375 33.394531 13.175781 C 33.550781 13.238281 33.710938 13.269531 33.875 13.269531 C 34.042969 13.269531 34.203125 13.238281 34.355469 13.175781 C 34.511719 13.109375 34.648438 13.019531 34.765625 12.902344 C 34.882812 12.785156 34.972656 12.648438 35.035156 12.492188 C 35.101562 12.339844 35.132812 12.179688 35.132812 12.011719 Z M 35.132812 12.011719 " fill-opacity="1" fill-rule="evenodd"/><path fill="#000000" d="M 46.585938 26.160156 C 46.585938 25.953125 46.546875 25.753906 46.46875 25.5625 C 46.390625 25.371094 46.277344 25.199219 46.128906 25.054688 C 45.980469 24.90625 45.8125 24.792969 45.621094 24.714844 C 45.429688 24.632812 45.230469 24.59375 45.023438 24.59375 C 44.8125 24.59375 44.613281 24.632812 44.421875 24.714844 C 44.230469 24.792969 44.0625 24.90625 43.914062 25.054688 C 43.765625 25.199219 43.652344 25.371094 43.574219 25.5625 C 43.496094 25.753906 43.457031 25.953125 43.457031 26.160156 C 43.457031 26.367188 43.496094 26.566406 43.574219 26.761719 C 43.652344 26.953125 43.765625 27.121094 43.914062 27.269531 C 44.0625 27.414062 44.230469 27.527344 44.421875 27.605469 C 44.613281 27.6875 44.8125 27.726562 45.023438 27.726562 C 45.230469 27.726562 45.429688 27.6875 45.621094 27.605469 C 45.8125 27.527344 45.980469 27.414062 46.128906 27.265625 C 46.273438 27.121094 46.386719 26.949219 46.46875 26.757812 C 46.546875 26.566406 46.585938 26.367188 46.585938 26.160156 Z M 46.585938 26.160156 " fill-opacity="1" fill-rule="evenodd"/><path fill="#000000" d="M 29.335938 26.621094 C 29.335938 26.488281 29.3125 26.363281 29.261719 26.238281 C 29.210938 26.117188 29.136719 26.007812 29.042969 25.914062 C 28.949219 25.820312 28.84375 25.75 28.722656 25.699219 C 28.597656 25.648438 28.472656 25.621094 28.339844 25.621094 C 28.207031 25.621094 28.078125 25.648438 27.957031 25.699219 C 27.835938 25.75 27.726562 25.820312 27.632812 25.914062 C 27.539062 26.007812 27.46875 26.117188 27.417969 26.238281 C 27.367188 26.359375 27.339844 26.488281 27.339844 26.621094 C 27.339844 26.753906 27.367188 26.878906 27.417969 27.003906 C 27.46875 27.125 27.539062 27.234375 27.632812 27.324219 C 27.726562 27.417969 27.835938 27.492188 27.957031 27.542969 C 28.078125 27.59375 28.207031 27.617188 28.339844 27.617188 C 28.472656 27.617188 28.597656 27.59375 28.722656 27.542969 C 28.84375 27.492188 28.949219 27.417969 29.042969 27.324219 C 29.136719 27.230469 29.210938 27.125 29.261719 27.003906 C 29.3125 26.878906 29.335938 26.753906 29.335938 26.621094 Z M 29.335938 26.621094 " fill-opacity="1" fill-rule="evenodd"/></g></g></g><g clip-path="url(#2c32942525)"><path fill="#a6d71c" d="M 28.753906 49.730469 L 13.40625 56.925781 C 12.601562 57.308594 11.84375 57.761719 11.132812 58.289062 C 10.417969 58.816406 9.761719 59.40625 9.164062 60.0625 C 8.570312 60.71875 8.042969 61.429688 7.582031 62.1875 C 7.125 62.949219 6.746094 63.746094 6.441406 64.578125 C 6.140625 65.414062 5.925781 66.269531 5.789062 67.148438 C 5.65625 68.023438 5.609375 68.90625 5.648438 69.792969 C 5.6875 70.679688 5.8125 71.554688 6.023438 72.414062 C 6.234375 73.277344 6.527344 74.109375 6.902344 74.914062 C 7.28125 75.71875 7.734375 76.476562 8.261719 77.1875 C 8.789062 77.902344 9.382812 78.558594 10.039062 79.152344 C 10.695312 79.75 11.402344 80.277344 12.160156 80.738281 C 12.921875 81.195312 13.71875 81.574219 14.554688 81.875 C 15.386719 82.179688 16.242188 82.394531 17.121094 82.53125 C 17.996094 82.664062 18.878906 82.710938 19.765625 82.671875 C 20.652344 82.632812 21.527344 82.507812 22.386719 82.296875 C 23.25 82.085938 24.082031 81.792969 24.886719 81.417969 L 40.191406 74.242188 L 40.273438 74.203125 L 28.789062 49.714844 Z M 29.425781 54.277344 L 15.964844 60.589844 C 15.8125 60.660156 15.65625 60.699219 15.488281 60.707031 C 15.320312 60.714844 15.160156 60.691406 15.003906 60.632812 C 14.847656 60.578125 14.707031 60.492188 14.582031 60.378906 C 14.460938 60.265625 14.363281 60.136719 14.292969 59.984375 C 14.222656 59.832031 14.183594 59.675781 14.175781 59.507812 C 14.167969 59.339844 14.191406 59.179688 14.25 59.023438 C 14.304688 58.867188 14.390625 58.726562 14.503906 58.601562 C 14.617188 58.480469 14.746094 58.382812 14.898438 58.3125 L 28.359375 52 Z M 29.425781 54.277344 " fill-opacity="1" fill-rule="evenodd"/></g><g clip-path="url(#073bd4df14)"><path fill="#a6d71c" d="M 42.527344 74.160156 L 58.082031 80.996094 C 58.898438 81.351562 59.738281 81.625 60.601562 81.8125 C 61.46875 82.003906 62.347656 82.109375 63.234375 82.125 C 64.121094 82.144531 65 82.074219 65.875 81.917969 C 66.75 81.765625 67.597656 81.527344 68.425781 81.203125 C 69.253906 80.882812 70.039062 80.484375 70.789062 80.007812 C 71.535156 79.53125 72.230469 78.988281 72.875 78.375 C 73.515625 77.761719 74.089844 77.09375 74.601562 76.367188 C 75.113281 75.640625 75.546875 74.871094 75.90625 74.0625 C 76.261719 73.25 76.53125 72.410156 76.722656 71.542969 C 76.914062 70.675781 77.015625 69.796875 77.035156 68.910156 C 77.050781 68.023438 76.984375 67.144531 76.828125 66.269531 C 76.671875 65.398438 76.433594 64.546875 76.113281 63.71875 C 75.789062 62.894531 75.390625 62.105469 74.914062 61.355469 C 74.4375 60.609375 73.894531 59.914062 73.28125 59.273438 C 72.667969 58.628906 72 58.054688 71.273438 57.542969 C 70.546875 57.035156 69.777344 56.601562 68.964844 56.242188 L 53.410156 49.402344 Z M 67.53125 57.738281 C 67.683594 57.808594 67.816406 57.902344 67.933594 58.023438 C 68.046875 58.144531 68.132812 58.28125 68.195312 58.4375 C 68.253906 58.589844 68.285156 58.753906 68.28125 58.917969 C 68.277344 59.085938 68.238281 59.246094 68.171875 59.398438 C 68.105469 59.550781 68.011719 59.683594 67.890625 59.800781 C 67.769531 59.914062 67.632812 60.003906 67.476562 60.0625 C 67.320312 60.125 67.160156 60.152344 66.992188 60.148438 C 66.828125 60.144531 66.667969 60.109375 66.515625 60.042969 L 52.902344 54.0625 L 53.917969 51.757812 Z M 67.53125 57.738281 " fill-opacity="1" fill-rule="evenodd"/></g><g clip-path="url(#36ec37dbb1)"><path fill="#2e6a47" d="M 48.101562 48.367188 C 41.714844 34.75 51.765625 35.597656 53.652344 25.792969 C 60.140625 34.03125 60.550781 43.855469 49.417969 48.449219 C 48.488281 41.746094 55.332031 36.222656 54.21875 31.5 C 54.390625 34.953125 47.917969 41.429688 48.101562 48.367188 Z M 48.101562 48.367188 " fill-opacity="1" fill-rule="evenodd"/></g><path fill="#2e6a47" d="M 32.542969 49.082031 C 21.148438 44.847656 27.425781 39.640625 22.960938 32.921875 C 31.367188 33.992188 37.167969 39.433594 33.351562 48.386719 C 29.019531 45.046875 29.839844 37.984375 26.515625 35.894531 C 28.582031 37.78125 28.511719 45.183594 32.542969 49.082031 Z M 32.542969 49.082031 " fill-opacity="1" fill-rule="evenodd"/><path fill="#2e6a47" d="M 40.066406 63.917969 C 29.441406 53.128906 39.269531 50.570312 37.777344 40.628906 C 46.699219 46.273438 50.378906 55.464844 41.359375 63.554688 C 38.230469 57.503906 42.878906 49.964844 40.238281 45.855469 C 41.546875 49.078125 37.570312 57.394531 40.066406 63.917969 Z M 40.066406 63.917969 " fill-opacity="1" fill-rule="evenodd"/><path fill="#2e6a47" d="M 44.308594 31.609375 C 44.5625 31.601562 44.804688 31.644531 45.042969 31.734375 C 45.277344 31.828125 45.488281 31.957031 45.671875 32.132812 C 45.855469 32.308594 45.996094 32.507812 46.101562 32.742188 C 46.203125 32.972656 46.257812 33.214844 46.265625 33.464844 C 46.273438 33.71875 46.230469 33.964844 46.140625 34.199219 C 46.046875 34.4375 45.917969 34.648438 45.742188 34.832031 C 45.566406 35.011719 45.367188 35.15625 45.132812 35.261719 C 44.902344 35.363281 44.660156 35.417969 44.410156 35.425781 C 44.15625 35.429688 43.910156 35.390625 43.675781 35.296875 C 43.4375 35.207031 43.230469 35.074219 43.046875 34.902344 C 42.863281 34.726562 42.71875 34.523438 42.613281 34.292969 C 42.511719 34.0625 42.457031 33.820312 42.449219 33.566406 C 42.445312 33.3125 42.484375 33.070312 42.578125 32.832031 C 42.667969 32.597656 42.800781 32.386719 42.972656 32.203125 C 43.148438 32.019531 43.351562 31.878906 43.582031 31.773438 C 43.8125 31.671875 44.054688 31.617188 44.308594 31.609375 Z M 44.308594 31.609375 " fill-opacity="1" fill-rule="nonzero"/><path fill="#2e6a47" d="M 42.496094 66.722656 C 42.496094 66.566406 42.46875 66.417969 42.410156 66.273438 C 42.347656 66.128906 42.265625 66.003906 42.15625 65.894531 C 42.042969 65.785156 41.917969 65.699219 41.773438 65.640625 C 41.632812 65.582031 41.480469 65.550781 41.328125 65.550781 C 41.171875 65.550781 41.023438 65.582031 40.878906 65.640625 C 40.734375 65.699219 40.609375 65.785156 40.5 65.894531 C 40.390625 66.003906 40.304688 66.128906 40.246094 66.273438 C 40.1875 66.417969 40.15625 66.566406 40.15625 66.722656 C 40.15625 66.878906 40.1875 67.027344 40.246094 67.171875 C 40.304688 67.3125 40.390625 67.441406 40.5 67.550781 C 40.609375 67.660156 40.738281 67.742188 40.878906 67.804688 C 41.023438 67.863281 41.171875 67.890625 41.328125 67.890625 C 41.484375 67.890625 41.632812 67.863281 41.777344 67.800781 C 41.917969 67.742188 42.046875 67.65625 42.15625 67.546875 C 42.265625 67.4375 42.347656 67.3125 42.410156 67.167969 C 42.46875 67.027344 42.496094 66.875 42.496094 66.722656 Z M 42.496094 66.722656 " fill-opacity="1" fill-rule="evenodd"/><path fill="#2e6a47" d="M 39.636719 37.519531 C 39.636719 37.351562 39.605469 37.191406 39.542969 37.035156 C 39.476562 36.882812 39.386719 36.746094 39.269531 36.628906 C 39.152344 36.511719 39.015625 36.421875 38.863281 36.355469 C 38.707031 36.292969 38.546875 36.261719 38.378906 36.261719 C 38.214844 36.261719 38.054688 36.292969 37.898438 36.355469 C 37.746094 36.421875 37.609375 36.511719 37.492188 36.628906 C 37.375 36.746094 37.285156 36.882812 37.21875 37.035156 C 37.15625 37.191406 37.125 37.351562 37.125 37.519531 C 37.125 37.683594 37.15625 37.84375 37.21875 38 C 37.285156 38.152344 37.375 38.289062 37.492188 38.40625 C 37.609375 38.523438 37.746094 38.613281 37.898438 38.679688 C 38.054688 38.742188 38.214844 38.773438 38.378906 38.773438 C 38.546875 38.773438 38.707031 38.742188 38.859375 38.679688 C 39.015625 38.613281 39.152344 38.523438 39.269531 38.40625 C 39.386719 38.289062 39.476562 38.152344 39.539062 37.996094 C 39.605469 37.84375 39.636719 37.683594 39.636719 37.519531 Z M 39.636719 37.519531 " fill-opacity="1" fill-rule="evenodd"/><path fill="#2e6a47" d="M 51.089844 51.664062 C 51.089844 51.457031 51.050781 51.257812 50.972656 51.066406 C 50.894531 50.875 50.78125 50.703125 50.632812 50.558594 C 50.484375 50.410156 50.316406 50.296875 50.125 50.21875 C 49.933594 50.136719 49.734375 50.097656 49.527344 50.097656 C 49.316406 50.097656 49.117188 50.136719 48.925781 50.21875 C 48.734375 50.296875 48.566406 50.410156 48.417969 50.558594 C 48.269531 50.703125 48.15625 50.875 48.078125 51.066406 C 48 51.257812 47.960938 51.457031 47.960938 51.664062 C 47.960938 51.871094 48 52.070312 48.078125 52.265625 C 48.15625 52.457031 48.269531 52.625 48.417969 52.773438 C 48.566406 52.917969 48.734375 53.03125 48.925781 53.113281 C 49.117188 53.191406 49.316406 53.230469 49.527344 53.230469 C 49.734375 53.230469 49.933594 53.191406 50.125 53.109375 C 50.316406 53.03125 50.484375 52.917969 50.632812 52.769531 C 50.777344 52.625 50.890625 52.453125 50.972656 52.261719 C 51.050781 52.070312 51.089844 51.871094 51.089844 51.664062 Z M 51.089844 51.664062 " fill-opacity="1" fill-rule="evenodd"/><path fill="#2e6a47" d="M 33.839844 52.125 C 33.839844 51.992188 33.816406 51.867188 33.765625 51.742188 C 33.714844 51.621094 33.640625 51.511719 33.546875 51.417969 C 33.457031 51.324219 33.347656 51.253906 33.226562 51.203125 C 33.101562 51.152344 32.976562 51.125 32.84375 51.125 C 32.710938 51.125 32.582031 51.152344 32.460938 51.203125 C 32.339844 51.253906 32.230469 51.324219 32.136719 51.417969 C 32.042969 51.511719 31.972656 51.621094 31.921875 51.742188 C 31.871094 51.863281 31.84375 51.992188 31.84375 52.125 C 31.84375 52.257812 31.871094 52.382812 31.921875 52.507812 C 31.972656 52.628906 32.042969 52.738281 32.136719 52.828125 C 32.230469 52.921875 32.339844 52.996094 32.460938 53.046875 C 32.585938 53.097656 32.710938 53.121094 32.84375 53.121094 C 32.976562 53.121094 33.101562 53.097656 33.226562 53.046875 C 33.347656 52.996094 33.453125 52.921875 33.546875 52.828125 C 33.640625 52.734375 33.714844 52.628906 33.765625 52.507812 C 33.816406 52.382812 33.839844 52.257812 33.839844 52.125 Z M 33.839844 52.125 " fill-opacity="1" fill-rule="evenodd"/><g fill="#ffffff" fill-opacity="0.2902"><g transform="translate(82.815557, 57.651846)"><g><path d="M -1.234375 0 L 6.3125 -14.828125 L 11.421875 -14.828125 L 12.671875 0 L 8.796875 0 L 8.703125 -2.78125 L 4.15625 -2.78125 L 2.890625 0 Z M 5.609375 -5.9375 L 8.578125 -5.9375 L 8.421875 -10.203125 C 8.421875 -10.535156 8.414062 -10.863281 8.40625 -11.1875 C 8.394531 -11.507812 8.394531 -11.816406 8.40625 -12.109375 L 8.34375 -12.109375 C 8.238281 -11.796875 8.128906 -11.488281 8.015625 -11.1875 C 7.898438 -10.894531 7.769531 -10.59375 7.625 -10.28125 Z M 5.609375 -5.9375 "/></g></g></g><g fill="#ffffff" fill-opacity="0.2902"><g transform="translate(95.392909, 57.651846)"><g><path d="M 0.234375 0 L 2.65625 -11.484375 L 5.796875 -11.484375 L 5.671875 -9.890625 L 5.75 -9.890625 C 6 -10.316406 6.273438 -10.660156 6.578125 -10.921875 C 6.878906 -11.191406 7.222656 -11.382812 7.609375 -11.5 C 7.992188 -11.625 8.425781 -11.6875 8.90625 -11.6875 C 9.625 -11.6875 10.203125 -11.535156 10.640625 -11.234375 C 11.085938 -10.941406 11.414062 -10.546875 11.625 -10.046875 C 11.832031 -9.554688 11.9375 -9.015625 11.9375 -8.421875 C 11.9375 -8.046875 11.910156 -7.65625 11.859375 -7.25 C 11.816406 -6.851562 11.757812 -6.472656 11.6875 -6.109375 L 10.40625 0 L 6.484375 0 L 7.78125 -6.265625 C 7.820312 -6.441406 7.863281 -6.664062 7.90625 -6.9375 C 7.945312 -7.207031 7.96875 -7.460938 7.96875 -7.703125 C 7.96875 -7.992188 7.894531 -8.210938 7.75 -8.359375 C 7.601562 -8.503906 7.421875 -8.578125 7.203125 -8.578125 C 6.953125 -8.578125 6.707031 -8.46875 6.46875 -8.25 C 6.238281 -8.039062 6.023438 -7.71875 5.828125 -7.28125 C 5.640625 -6.84375 5.472656 -6.285156 5.328125 -5.609375 L 4.15625 0 Z M 0.234375 0 "/></g></g></g><g fill="#ffffff" fill-opacity="0.2902"><g transform="translate(106.855054, 57.651846)"><g><path d="M 0.234375 0 L 3.5625 -15.78125 L 7.5 -15.78125 L 6.953125 -13.25 C 6.890625 -12.925781 6.804688 -12.585938 6.703125 -12.234375 C 6.597656 -11.878906 6.488281 -11.539062 6.375 -11.21875 C 6.269531 -10.894531 6.164062 -10.617188 6.0625 -10.390625 L 6.140625 -10.390625 C 6.378906 -10.691406 6.640625 -10.9375 6.921875 -11.125 C 7.203125 -11.320312 7.507812 -11.460938 7.84375 -11.546875 C 8.175781 -11.640625 8.53125 -11.6875 8.90625 -11.6875 C 9.625 -11.6875 10.203125 -11.535156 10.640625 -11.234375 C 11.085938 -10.941406 11.414062 -10.546875 11.625 -10.046875 C 11.832031 -9.554688 11.9375 -9.015625 11.9375 -8.421875 C 11.9375 -8.046875 11.910156 -7.65625 11.859375 -7.25 C 11.816406 -6.851562 11.757812 -6.472656 11.6875 -6.109375 L 10.40625 0 L 6.484375 0 L 7.78125 -6.265625 C 7.820312 -6.441406 7.863281 -6.664062 7.90625 -6.9375 C 7.945312 -7.207031 7.96875 -7.460938 7.96875 -7.703125 C 7.96875 -7.992188 7.894531 -8.210938 7.75 -8.359375 C 7.601562 -8.503906 7.421875 -8.578125 7.203125 -8.578125 C 6.953125 -8.578125 6.710938 -8.476562 6.484375 -8.28125 C 6.253906 -8.082031 6.039062 -7.765625 5.84375 -7.328125 C 5.65625 -6.890625 5.484375 -6.316406 5.328125 -5.609375 L 4.15625 0 Z M 0.234375 0 "/></g></g></g><g fill="#ffffff" fill-opacity="0.2902"><g transform="translate(118.317198, 57.651846)"><g/></g></g><g fill="#ffffff" fill-opacity="0.2902"><g transform="translate(122.256761, 57.651846)"><g><path d="M 0.328125 0 L 3.46875 -14.828125 L 7.6875 -14.828125 C 9.5 -14.828125 10.929688 -14.347656 11.984375 -13.390625 C 13.035156 -12.441406 13.5625 -11.050781 13.5625 -9.21875 C 13.5625 -8.070312 13.4375 -7.015625 13.1875 -6.046875 C 12.9375 -5.085938 12.570312 -4.234375 12.09375 -3.484375 C 11.625 -2.734375 11.046875 -2.097656 10.359375 -1.578125 C 9.679688 -1.066406 8.898438 -0.675781 8.015625 -0.40625 C 7.140625 -0.132812 6.171875 0 5.109375 0 Z M 5.015625 -3.28125 L 5.703125 -3.28125 C 6.160156 -3.28125 6.585938 -3.367188 6.984375 -3.546875 C 7.378906 -3.722656 7.734375 -3.976562 8.046875 -4.3125 C 8.359375 -4.644531 8.628906 -5.046875 8.859375 -5.515625 C 9.085938 -5.984375 9.257812 -6.507812 9.375 -7.09375 C 9.488281 -7.6875 9.546875 -8.328125 9.546875 -9.015625 C 9.546875 -9.859375 9.363281 -10.5 9 -10.9375 C 8.632812 -11.375 8.125 -11.59375 7.46875 -11.59375 L 6.75 -11.59375 Z M 5.015625 -3.28125 "/></g></g></g><g fill="#ffffff" fill-opacity="0.2902"><g transform="translate(135.006463, 57.651846)"><g><path d="M 4 0.203125 C 3.289062 0.203125 2.710938 0.0546875 2.265625 -0.234375 C 1.828125 -0.535156 1.5 -0.929688 1.28125 -1.421875 C 1.070312 -1.921875 0.96875 -2.460938 0.96875 -3.046875 C 0.96875 -3.429688 0.988281 -3.828125 1.03125 -4.234375 C 1.082031 -4.640625 1.148438 -5.019531 1.234375 -5.375 L 2.515625 -11.484375 L 6.4375 -11.484375 L 5.125 -5.234375 C 5.082031 -5.054688 5.039062 -4.832031 5 -4.5625 C 4.957031 -4.289062 4.9375 -4.035156 4.9375 -3.796875 C 4.9375 -3.503906 5.007812 -3.285156 5.15625 -3.140625 C 5.3125 -3.003906 5.492188 -2.9375 5.703125 -2.9375 C 5.929688 -2.9375 6.160156 -3.039062 6.390625 -3.25 C 6.628906 -3.457031 6.851562 -3.78125 7.0625 -4.21875 C 7.269531 -4.65625 7.441406 -5.21875 7.578125 -5.90625 L 8.765625 -11.484375 L 12.6875 -11.484375 L 10.265625 0 L 7.125 0 L 7.25 -1.609375 L 7.171875 -1.609375 C 6.921875 -1.179688 6.640625 -0.832031 6.328125 -0.5625 C 6.023438 -0.289062 5.679688 -0.0976562 5.296875 0.015625 C 4.921875 0.140625 4.488281 0.203125 4 0.203125 Z M 4 0.203125 "/></g></g></g><g fill="#ffffff" fill-opacity="0.2902"><g transform="translate(146.468609, 57.651846)"><g><path d="M 5.265625 0.203125 C 4.328125 0.203125 3.53125 0.03125 2.875 -0.3125 C 2.21875 -0.65625 1.71875 -1.15625 1.375 -1.8125 C 1.03125 -2.476562 0.859375 -3.28125 0.859375 -4.21875 C 0.859375 -5 0.941406 -5.753906 1.109375 -6.484375 C 1.285156 -7.222656 1.550781 -7.90625 1.90625 -8.53125 C 2.257812 -9.164062 2.695312 -9.71875 3.21875 -10.1875 C 3.738281 -10.664062 4.335938 -11.035156 5.015625 -11.296875 C 5.703125 -11.554688 6.472656 -11.6875 7.328125 -11.6875 C 8.265625 -11.6875 9.0625 -11.515625 9.71875 -11.171875 C 10.382812 -10.828125 10.890625 -10.320312 11.234375 -9.65625 C 11.578125 -9 11.75 -8.203125 11.75 -7.265625 C 11.75 -6.484375 11.660156 -5.722656 11.484375 -4.984375 C 11.304688 -4.253906 11.039062 -3.570312 10.6875 -2.9375 C 10.34375 -2.3125 9.910156 -1.765625 9.390625 -1.296875 C 8.867188 -0.828125 8.265625 -0.457031 7.578125 -0.1875 C 6.890625 0.0703125 6.117188 0.203125 5.265625 0.203125 Z M 5.703125 -2.734375 C 5.929688 -2.734375 6.148438 -2.820312 6.359375 -3 C 6.566406 -3.175781 6.753906 -3.414062 6.921875 -3.71875 C 7.085938 -4.03125 7.234375 -4.382812 7.359375 -4.78125 C 7.484375 -5.175781 7.578125 -5.597656 7.640625 -6.046875 C 7.710938 -6.492188 7.75 -6.941406 7.75 -7.390625 C 7.75 -7.691406 7.710938 -7.941406 7.640625 -8.140625 C 7.566406 -8.335938 7.460938 -8.484375 7.328125 -8.578125 C 7.203125 -8.679688 7.050781 -8.734375 6.875 -8.734375 C 6.644531 -8.734375 6.425781 -8.644531 6.21875 -8.46875 C 6.007812 -8.300781 5.820312 -8.0625 5.65625 -7.75 C 5.5 -7.445312 5.359375 -7.097656 5.234375 -6.703125 C 5.109375 -6.304688 5.015625 -5.882812 4.953125 -5.4375 C 4.890625 -4.988281 4.859375 -4.539062 4.859375 -4.09375 C 4.859375 -3.644531 4.929688 -3.304688 5.078125 -3.078125 C 5.222656 -2.847656 5.429688 -2.734375 5.703125 -2.734375 Z M 5.703125 -2.734375 "/></g></g></g><g fill="#ffffff" fill-opacity="0.2902"><g transform="translate(157.61647, 57.651846)"><g><path d="M 0.234375 0 L 2.65625 -11.484375 L 5.796875 -11.484375 L 5.671875 -9.890625 L 5.75 -9.890625 C 6 -10.316406 6.273438 -10.660156 6.578125 -10.921875 C 6.878906 -11.191406 7.222656 -11.382812 7.609375 -11.5 C 7.992188 -11.625 8.425781 -11.6875 8.90625 -11.6875 C 9.625 -11.6875 10.203125 -11.535156 10.640625 -11.234375 C 11.085938 -10.941406 11.414062 -10.546875 11.625 -10.046875 C 11.832031 -9.554688 11.9375 -9.015625 11.9375 -8.421875 C 11.9375 -8.046875 11.910156 -7.65625 11.859375 -7.25 C 11.816406 -6.851562 11.757812 -6.472656 11.6875 -6.109375 L 10.40625 0 L 6.484375 0 L 7.78125 -6.265625 C 7.820312 -6.441406 7.863281 -6.664062 7.90625 -6.9375 C 7.945312 -7.207031 7.96875 -7.460938 7.96875 -7.703125 C 7.96875 -7.992188 7.894531 -8.210938 7.75 -8.359375 C 7.601562 -8.503906 7.421875 -8.578125 7.203125 -8.578125 C 6.953125 -8.578125 6.707031 -8.46875 6.46875 -8.25 C 6.238281 -8.039062 6.023438 -7.71875 5.828125 -7.28125 C 5.640625 -6.84375 5.472656 -6.285156 5.328125 -5.609375 L 4.15625 0 Z M 0.234375 0 "/></g></g></g><g fill="#ffffff" fill-opacity="0.2902"><g transform="translate(169.078616, 57.651846)"><g><path d="M 3.515625 4.984375 C 2.085938 4.984375 0.945312 4.726562 0.09375 4.21875 C -0.75 3.707031 -1.171875 3 -1.171875 2.09375 C -1.171875 1.4375 -0.941406 0.867188 -0.484375 0.390625 C -0.0234375 -0.0859375 0.6875 -0.488281 1.65625 -0.8125 C 1.40625 -0.96875 1.203125 -1.171875 1.046875 -1.421875 C 0.890625 -1.671875 0.8125 -1.9375 0.8125 -2.21875 C 0.8125 -2.695312 0.984375 -3.125 1.328125 -3.5 C 1.671875 -3.875 2.1875 -4.210938 2.875 -4.515625 C 2.425781 -4.867188 2.09375 -5.28125 1.875 -5.75 C 1.65625 -6.226562 1.546875 -6.769531 1.546875 -7.375 C 1.546875 -7.976562 1.640625 -8.523438 1.828125 -9.015625 C 2.023438 -9.503906 2.3125 -9.9375 2.6875 -10.3125 C 3.132812 -10.75 3.691406 -11.085938 4.359375 -11.328125 C 5.023438 -11.566406 5.789062 -11.6875 6.65625 -11.6875 C 7 -11.6875 7.359375 -11.664062 7.734375 -11.625 C 8.117188 -11.582031 8.425781 -11.535156 8.65625 -11.484375 L 12.6875 -11.484375 L 12.28125 -9.390625 L 10.65625 -8.859375 C 10.6875 -8.722656 10.710938 -8.578125 10.734375 -8.421875 C 10.753906 -8.265625 10.765625 -8.09375 10.765625 -7.90625 C 10.765625 -7.28125 10.65625 -6.707031 10.4375 -6.1875 C 10.21875 -5.675781 9.910156 -5.226562 9.515625 -4.84375 C 9.097656 -4.445312 8.585938 -4.140625 7.984375 -3.921875 C 7.390625 -3.703125 6.726562 -3.59375 6 -3.59375 C 5.75 -3.59375 5.515625 -3.601562 5.296875 -3.625 C 5.085938 -3.644531 4.90625 -3.675781 4.75 -3.71875 C 4.613281 -3.644531 4.5 -3.570312 4.40625 -3.5 C 4.3125 -3.425781 4.265625 -3.320312 4.265625 -3.1875 C 4.265625 -3.09375 4.300781 -3.007812 4.375 -2.9375 C 4.445312 -2.863281 4.570312 -2.796875 4.75 -2.734375 C 4.925781 -2.671875 5.140625 -2.625 5.390625 -2.59375 L 6.765625 -2.40625 C 7.554688 -2.3125 8.191406 -2.144531 8.671875 -1.90625 C 9.160156 -1.664062 9.515625 -1.351562 9.734375 -0.96875 C 9.960938 -0.582031 10.078125 -0.113281 10.078125 0.4375 C 10.078125 1.175781 9.921875 1.832031 9.609375 2.40625 C 9.304688 2.988281 8.863281 3.472656 8.28125 3.859375 C 7.71875 4.234375 7.035156 4.515625 6.234375 4.703125 C 5.441406 4.890625 4.535156 4.984375 3.515625 4.984375 Z M 3.890625 2.40625 C 4.273438 2.40625 4.648438 2.378906 5.015625 2.328125 C 5.378906 2.285156 5.6875 2.195312 5.9375 2.0625 C 6.101562 1.976562 6.234375 1.867188 6.328125 1.734375 C 6.429688 1.609375 6.484375 1.457031 6.484375 1.28125 C 6.484375 1.1875 6.46875 1.101562 6.4375 1.03125 C 6.40625 0.96875 6.363281 0.910156 6.3125 0.859375 C 6.1875 0.722656 6.003906 0.628906 5.765625 0.578125 C 5.535156 0.523438 5.273438 0.484375 4.984375 0.453125 L 3.828125 0.328125 C 3.472656 0.378906 3.171875 0.457031 2.921875 0.5625 C 2.679688 0.675781 2.492188 0.8125 2.359375 0.96875 C 2.234375 1.132812 2.171875 1.328125 2.171875 1.546875 C 2.171875 1.835938 2.3125 2.050781 2.59375 2.1875 C 2.882812 2.332031 3.316406 2.40625 3.890625 2.40625 Z M 5.921875 -6.0625 C 6.160156 -6.0625 6.367188 -6.164062 6.546875 -6.375 C 6.722656 -6.59375 6.863281 -6.875 6.96875 -7.21875 C 7.070312 -7.570312 7.125 -7.953125 7.125 -8.359375 C 7.125 -8.515625 7.113281 -8.65625 7.09375 -8.78125 C 7.070312 -8.90625 7.03125 -9.003906 6.96875 -9.078125 C 6.925781 -9.160156 6.863281 -9.222656 6.78125 -9.265625 C 6.707031 -9.304688 6.617188 -9.328125 6.515625 -9.328125 C 6.296875 -9.328125 6.101562 -9.25 5.9375 -9.09375 C 5.78125 -8.945312 5.648438 -8.753906 5.546875 -8.515625 C 5.441406 -8.285156 5.363281 -8.035156 5.3125 -7.765625 C 5.257812 -7.503906 5.234375 -7.253906 5.234375 -7.015625 C 5.234375 -6.867188 5.242188 -6.738281 5.265625 -6.625 C 5.296875 -6.507812 5.335938 -6.414062 5.390625 -6.34375 C 5.503906 -6.15625 5.679688 -6.0625 5.921875 -6.0625 Z M 5.921875 -6.0625 "/></g></g></g><g fill="#000000" fill-opacity="1"><g transform="translate(82.090533, 57.02159)"><g><path d="M -1.234375 0 L 6.3125 -14.828125 L 11.421875 -14.828125 L 12.671875 0 L 8.796875 0 L 8.703125 -2.78125 L 4.15625 -2.78125 L 2.890625 0 Z M 5.609375 -5.9375 L 8.578125 -5.9375 L 8.421875 -10.203125 C 8.421875 -10.535156 8.414062 -10.863281 8.40625 -11.1875 C 8.394531 -11.507812 8.394531 -11.816406 8.40625 -12.109375 L 8.34375 -12.109375 C 8.238281 -11.796875 8.128906 -11.488281 8.015625 -11.1875 C 7.898438 -10.894531 7.769531 -10.59375 7.625 -10.28125 Z M 5.609375 -5.9375 "/></g></g></g><g fill="#000000" fill-opacity="1"><g transform="translate(94.667885, 57.02159)"><g><path d="M 0.234375 0 L 2.65625 -11.484375 L 5.796875 -11.484375 L 5.671875 -9.890625 L 5.75 -9.890625 C 6 -10.316406 6.273438 -10.660156 6.578125 -10.921875 C 6.878906 -11.191406 7.222656 -11.382812 7.609375 -11.5 C 7.992188 -11.625 8.425781 -11.6875 8.90625 -11.6875 C 9.625 -11.6875 10.203125 -11.535156 10.640625 -11.234375 C 11.085938 -10.941406 11.414062 -10.546875 11.625 -10.046875 C 11.832031 -9.554688 11.9375 -9.015625 11.9375 -8.421875 C 11.9375 -8.046875 11.910156 -7.65625 11.859375 -7.25 C 11.816406 -6.851562 11.757812 -6.472656 11.6875 -6.109375 L 10.40625 0 L 6.484375 0 L 7.78125 -6.265625 C 7.820312 -6.441406 7.863281 -6.664062 7.90625 -6.9375 C 7.945312 -7.207031 7.96875 -7.460938 7.96875 -7.703125 C 7.96875 -7.992188 7.894531 -8.210938 7.75 -8.359375 C 7.601562 -8.503906 7.421875 -8.578125 7.203125 -8.578125 C 6.953125 -8.578125 6.707031 -8.46875 6.46875 -8.25 C 6.238281 -8.039062 6.023438 -7.71875 5.828125 -7.28125 C 5.640625 -6.84375 5.472656 -6.285156 5.328125 -5.609375 L 4.15625 0 Z M 0.234375 0 "/></g></g></g><g fill="#000000" fill-opacity="1"><g transform="translate(106.13003, 57.02159)"><g><path d="M 0.234375 0 L 3.5625 -15.78125 L 7.5 -15.78125 L 6.953125 -13.25 C 6.890625 -12.925781 6.804688 -12.585938 6.703125 -12.234375 C 6.597656 -11.878906 6.488281 -11.539062 6.375 -11.21875 C 6.269531 -10.894531 6.164062 -10.617188 6.0625 -10.390625 L 6.140625 -10.390625 C 6.378906 -10.691406 6.640625 -10.9375 6.921875 -11.125 C 7.203125 -11.320312 7.507812 -11.460938 7.84375 -11.546875 C 8.175781 -11.640625 8.53125 -11.6875 8.90625 -11.6875 C 9.625 -11.6875 10.203125 -11.535156 10.640625 -11.234375 C 11.085938 -10.941406 11.414062 -10.546875 11.625 -10.046875 C 11.832031 -9.554688 11.9375 -9.015625 11.9375 -8.421875 C 11.9375 -8.046875 11.910156 -7.65625 11.859375 -7.25 C 11.816406 -6.851562 11.757812 -6.472656 11.6875 -6.109375 L 10.40625 0 L 6.484375 0 L 7.78125 -6.265625 C 7.820312 -6.441406 7.863281 -6.664062 7.90625 -6.9375 C 7.945312 -7.207031 7.96875 -7.460938 7.96875 -7.703125 C 7.96875 -7.992188 7.894531 -8.210938 7.75 -8.359375 C 7.601562 -8.503906 7.421875 -8.578125 7.203125 -8.578125 C 6.953125 -8.578125 6.710938 -8.476562 6.484375 -8.28125 C 6.253906 -8.082031 6.039062 -7.765625 5.84375 -7.328125 C 5.65625 -6.890625 5.484375 -6.316406 5.328125 -5.609375 L 4.15625 0 Z M 0.234375 0 "/></g></g></g><g fill="#000000" fill-opacity="1"><g transform="translate(117.592174, 57.02159)"><g/></g></g><g fill="#000000" fill-opacity="1"><g transform="translate(121.531737, 57.02159)"><g><path d="M 0.328125 0 L 3.46875 -14.828125 L 7.6875 -14.828125 C 9.5 -14.828125 10.929688 -14.347656 11.984375 -13.390625 C 13.035156 -12.441406 13.5625 -11.050781 13.5625 -9.21875 C 13.5625 -8.070312 13.4375 -7.015625 13.1875 -6.046875 C 12.9375 -5.085938 12.570312 -4.234375 12.09375 -3.484375 C 11.625 -2.734375 11.046875 -2.097656 10.359375 -1.578125 C 9.679688 -1.066406 8.898438 -0.675781 8.015625 -0.40625 C 7.140625 -0.132812 6.171875 0 5.109375 0 Z M 5.015625 -3.28125 L 5.703125 -3.28125 C 6.160156 -3.28125 6.585938 -3.367188 6.984375 -3.546875 C 7.378906 -3.722656 7.734375 -3.976562 8.046875 -4.3125 C 8.359375 -4.644531 8.628906 -5.046875 8.859375 -5.515625 C 9.085938 -5.984375 9.257812 -6.507812 9.375 -7.09375 C 9.488281 -7.6875 9.546875 -8.328125 9.546875 -9.015625 C 9.546875 -9.859375 9.363281 -10.5 9 -10.9375 C 8.632812 -11.375 8.125 -11.59375 7.46875 -11.59375 L 6.75 -11.59375 Z M 5.015625 -3.28125 "/></g></g></g><g fill="#000000" fill-opacity="1"><g transform="translate(134.281439, 57.02159)"><g><path d="M 4 0.203125 C 3.289062 0.203125 2.710938 0.0546875 2.265625 -0.234375 C 1.828125 -0.535156 1.5 -0.929688 1.28125 -1.421875 C 1.070312 -1.921875 0.96875 -2.460938 0.96875 -3.046875 C 0.96875 -3.429688 0.988281 -3.828125 1.03125 -4.234375 C 1.082031 -4.640625 1.148438 -5.019531 1.234375 -5.375 L 2.515625 -11.484375 L 6.4375 -11.484375 L 5.125 -5.234375 C 5.082031 -5.054688 5.039062 -4.832031 5 -4.5625 C 4.957031 -4.289062 4.9375 -4.035156 4.9375 -3.796875 C 4.9375 -3.503906 5.007812 -3.285156 5.15625 -3.140625 C 5.3125 -3.003906 5.492188 -2.9375 5.703125 -2.9375 C 5.929688 -2.9375 6.160156 -3.039062 6.390625 -3.25 C 6.628906 -3.457031 6.851562 -3.78125 7.0625 -4.21875 C 7.269531 -4.65625 7.441406 -5.21875 7.578125 -5.90625 L 8.765625 -11.484375 L 12.6875 -11.484375 L 10.265625 0 L 7.125 0 L 7.25 -1.609375 L 7.171875 -1.609375 C 6.921875 -1.179688 6.640625 -0.832031 6.328125 -0.5625 C 6.023438 -0.289062 5.679688 -0.0976562 5.296875 0.015625 C 4.921875 0.140625 4.488281 0.203125 4 0.203125 Z M 4 0.203125 "/></g></g></g><g fill="#000000" fill-opacity="1"><g transform="translate(145.743585, 57.02159)"><g><path d="M 5.265625 0.203125 C 4.328125 0.203125 3.53125 0.03125 2.875 -0.3125 C 2.21875 -0.65625 1.71875 -1.15625 1.375 -1.8125 C 1.03125 -2.476562 0.859375 -3.28125 0.859375 -4.21875 C 0.859375 -5 0.941406 -5.753906 1.109375 -6.484375 C 1.285156 -7.222656 1.550781 -7.90625 1.90625 -8.53125 C 2.257812 -9.164062 2.695312 -9.71875 3.21875 -10.1875 C 3.738281 -10.664062 4.335938 -11.035156 5.015625 -11.296875 C 5.703125 -11.554688 6.472656 -11.6875 7.328125 -11.6875 C 8.265625 -11.6875 9.0625 -11.515625 9.71875 -11.171875 C 10.382812 -10.828125 10.890625 -10.320312 11.234375 -9.65625 C 11.578125 -9 11.75 -8.203125 11.75 -7.265625 C 11.75 -6.484375 11.660156 -5.722656 11.484375 -4.984375 C 11.304688 -4.253906 11.039062 -3.570312 10.6875 -2.9375 C 10.34375 -2.3125 9.910156 -1.765625 9.390625 -1.296875 C 8.867188 -0.828125 8.265625 -0.457031 7.578125 -0.1875 C 6.890625 0.0703125 6.117188 0.203125 5.265625 0.203125 Z M 5.703125 -2.734375 C 5.929688 -2.734375 6.148438 -2.820312 6.359375 -3 C 6.566406 -3.175781 6.753906 -3.414062 6.921875 -3.71875 C 7.085938 -4.03125 7.234375 -4.382812 7.359375 -4.78125 C 7.484375 -5.175781 7.578125 -5.597656 7.640625 -6.046875 C 7.710938 -6.492188 7.75 -6.941406 7.75 -7.390625 C 7.75 -7.691406 7.710938 -7.941406 7.640625 -8.140625 C 7.566406 -8.335938 7.460938 -8.484375 7.328125 -8.578125 C 7.203125 -8.679688 7.050781 -8.734375 6.875 -8.734375 C 6.644531 -8.734375 6.425781 -8.644531 6.21875 -8.46875 C 6.007812 -8.300781 5.820312 -8.0625 5.65625 -7.75 C 5.5 -7.445312 5.359375 -7.097656 5.234375 -6.703125 C 5.109375 -6.304688 5.015625 -5.882812 4.953125 -5.4375 C 4.890625 -4.988281 4.859375 -4.539062 4.859375 -4.09375 C 4.859375 -3.644531 4.929688 -3.304688 5.078125 -3.078125 C 5.222656 -2.847656 5.429688 -2.734375 5.703125 -2.734375 Z M 5.703125 -2.734375 "/></g></g></g><g fill="#000000" fill-opacity="1"><g transform="translate(156.891445, 57.02159)"><g><path d="M 0.234375 0 L 2.65625 -11.484375 L 5.796875 -11.484375 L 5.671875 -9.890625 L 5.75 -9.890625 C 6 -10.316406 6.273438 -10.660156 6.578125 -10.921875 C 6.878906 -11.191406 7.222656 -11.382812 7.609375 -11.5 C 7.992188 -11.625 8.425781 -11.6875 8.90625 -11.6875 C 9.625 -11.6875 10.203125 -11.535156 10.640625 -11.234375 C 11.085938 -10.941406 11.414062 -10.546875 11.625 -10.046875 C 11.832031 -9.554688 11.9375 -9.015625 11.9375 -8.421875 C 11.9375 -8.046875 11.910156 -7.65625 11.859375 -7.25 C 11.816406 -6.851562 11.757812 -6.472656 11.6875 -6.109375 L 10.40625 0 L 6.484375 0 L 7.78125 -6.265625 C 7.820312 -6.441406 7.863281 -6.664062 7.90625 -6.9375 C 7.945312 -7.207031 7.96875 -7.460938 7.96875 -7.703125 C 7.96875 -7.992188 7.894531 -8.210938 7.75 -8.359375 C 7.601562 -8.503906 7.421875 -8.578125 7.203125 -8.578125 C 6.953125 -8.578125 6.707031 -8.46875 6.46875 -8.25 C 6.238281 -8.039062 6.023438 -7.71875 5.828125 -7.28125 C 5.640625 -6.84375 5.472656 -6.285156 5.328125 -5.609375 L 4.15625 0 Z M 0.234375 0 "/></g></g></g><g fill="#000000" fill-opacity="1"><g transform="translate(168.353592, 57.02159)"><g><path d="M 3.515625 4.984375 C 2.085938 4.984375 0.945312 4.726562 0.09375 4.21875 C -0.75 3.707031 -1.171875 3 -1.171875 2.09375 C -1.171875 1.4375 -0.941406 0.867188 -0.484375 0.390625 C -0.0234375 -0.0859375 0.6875 -0.488281 1.65625 -0.8125 C 1.40625 -0.96875 1.203125 -1.171875 1.046875 -1.421875 C 0.890625 -1.671875 0.8125 -1.9375 0.8125 -2.21875 C 0.8125 -2.695312 0.984375 -3.125 1.328125 -3.5 C 1.671875 -3.875 2.1875 -4.210938 2.875 -4.515625 C 2.425781 -4.867188 2.09375 -5.28125 1.875 -5.75 C 1.65625 -6.226562 1.546875 -6.769531 1.546875 -7.375 C 1.546875 -7.976562 1.640625 -8.523438 1.828125 -9.015625 C 2.023438 -9.503906 2.3125 -9.9375 2.6875 -10.3125 C 3.132812 -10.75 3.691406 -11.085938 4.359375 -11.328125 C 5.023438 -11.566406 5.789062 -11.6875 6.65625 -11.6875 C 7 -11.6875 7.359375 -11.664062 7.734375 -11.625 C 8.117188 -11.582031 8.425781 -11.535156 8.65625 -11.484375 L 12.6875 -11.484375 L 12.28125 -9.390625 L 10.65625 -8.859375 C 10.6875 -8.722656 10.710938 -8.578125 10.734375 -8.421875 C 10.753906 -8.265625 10.765625 -8.09375 10.765625 -7.90625 C 10.765625 -7.28125 10.65625 -6.707031 10.4375 -6.1875 C 10.21875 -5.675781 9.910156 -5.226562 9.515625 -4.84375 C 9.097656 -4.445312 8.585938 -4.140625 7.984375 -3.921875 C 7.390625 -3.703125 6.726562 -3.59375 6 -3.59375 C 5.75 -3.59375 5.515625 -3.601562 5.296875 -3.625 C 5.085938 -3.644531 4.90625 -3.675781 4.75 -3.71875 C 4.613281 -3.644531 4.5 -3.570312 4.40625 -3.5 C 4.3125 -3.425781 4.265625 -3.320312 4.265625 -3.1875 C 4.265625 -3.09375 4.300781 -3.007812 4.375 -2.9375 C 4.445312 -2.863281 4.570312 -2.796875 4.75 -2.734375 C 4.925781 -2.671875 5.140625 -2.625 5.390625 -2.59375 L 6.765625 -2.40625 C 7.554688 -2.3125 8.191406 -2.144531 8.671875 -1.90625 C 9.160156 -1.664062 9.515625 -1.351562 9.734375 -0.96875 C 9.960938 -0.582031 10.078125 -0.113281 10.078125 0.4375 C 10.078125 1.175781 9.921875 1.832031 9.609375 2.40625 C 9.304688 2.988281 8.863281 3.472656 8.28125 3.859375 C 7.71875 4.234375 7.035156 4.515625 6.234375 4.703125 C 5.441406 4.890625 4.535156 4.984375 3.515625 4.984375 Z M 3.890625 2.40625 C 4.273438 2.40625 4.648438 2.378906 5.015625 2.328125 C 5.378906 2.285156 5.6875 2.195312 5.9375 2.0625 C 6.101562 1.976562 6.234375 1.867188 6.328125 1.734375 C 6.429688 1.609375 6.484375 1.457031 6.484375 1.28125 C 6.484375 1.1875 6.46875 1.101562 6.4375 1.03125 C 6.40625 0.96875 6.363281 0.910156 6.3125 0.859375 C 6.1875 0.722656 6.003906 0.628906 5.765625 0.578125 C 5.535156 0.523438 5.273438 0.484375 4.984375 0.453125 L 3.828125 0.328125 C 3.472656 0.378906 3.171875 0.457031 2.921875 0.5625 C 2.679688 0.675781 2.492188 0.8125 2.359375 0.96875 C 2.234375 1.132812 2.171875 1.328125 2.171875 1.546875 C 2.171875 1.835938 2.3125 2.050781 2.59375 2.1875 C 2.882812 2.332031 3.316406 2.40625 3.890625 2.40625 Z M 5.921875 -6.0625 C 6.160156 -6.0625 6.367188 -6.164062 6.546875 -6.375 C 6.722656 -6.59375 6.863281 -6.875 6.96875 -7.21875 C 7.070312 -7.570312 7.125 -7.953125 7.125 -8.359375 C 7.125 -8.515625 7.113281 -8.65625 7.09375 -8.78125 C 7.070312 -8.90625 7.03125 -9.003906 6.96875 -9.078125 C 6.925781 -9.160156 6.863281 -9.222656 6.78125 -9.265625 C 6.707031 -9.304688 6.617188 -9.328125 6.515625 -9.328125 C 6.296875 -9.328125 6.101562 -9.25 5.9375 -9.09375 C 5.78125 -8.945312 5.648438 -8.753906 5.546875 -8.515625 C 5.441406 -8.285156 5.363281 -8.035156 5.3125 -7.765625 C 5.257812 -7.503906 5.234375 -7.253906 5.234375 -7.015625 C 5.234375 -6.867188 5.242188 -6.738281 5.265625 -6.625 C 5.296875 -6.507812 5.335938 -6.414062 5.390625 -6.34375 C 5.503906 -6.15625 5.679688 -6.0625 5.921875 -6.0625 Z M 5.921875 -6.0625 "/></g></g></g><g fill="#000000" fill-opacity="0.651"><g transform="translate(82.512149, 71.506594)"><g><path d="M 4.84375 0 L 3.9375 0 L 3.921875 -2.625 L 2.953125 -0.40625 L 2.28125 -0.40625 L 1.328125 -2.625 L 1.328125 0 L 0.40625 0 L 0.40625 -4.046875 L 1.53125 -4.046875 L 2.625 -1.640625 L 3.71875 -4.046875 L 4.84375 -4.046875 Z M 4.84375 0 "/></g></g></g><g fill="#000000" fill-opacity="0.651"><g transform="translate(88.618764, 71.506594)"><g><path d="M 3.5625 -3.234375 L 1.4375 -3.234375 L 1.4375 -2.421875 L 3.359375 -2.421875 L 3.359375 -1.625 L 1.4375 -1.625 L 1.4375 -0.8125 L 3.625 -0.8125 L 3.625 0 L 0.40625 0 L 0.40625 -4.03125 L 3.5625 -4.03125 Z M 3.5625 -3.234375 "/></g></g></g><g fill="#000000" fill-opacity="0.651"><g transform="translate(93.365876, 71.506594)"><g><path d="M 0.40625 -4.03125 L 2.140625 -4.03125 C 2.773438 -4.03125 3.289062 -3.84375 3.6875 -3.46875 C 4.082031 -3.101562 4.28125 -2.617188 4.28125 -2.015625 C 4.28125 -1.421875 4.078125 -0.9375 3.671875 -0.5625 C 3.273438 -0.1875 2.75 0 2.09375 0 L 0.40625 0 Z M 1.4375 -3.21875 L 1.4375 -0.8125 L 2.15625 -0.8125 C 2.476562 -0.8125 2.738281 -0.921875 2.9375 -1.140625 C 3.132812 -1.367188 3.234375 -1.660156 3.234375 -2.015625 C 3.234375 -2.367188 3.128906 -2.65625 2.921875 -2.875 C 2.710938 -3.101562 2.441406 -3.21875 2.109375 -3.21875 Z M 1.4375 -3.21875 "/></g></g></g><g fill="#000000" fill-opacity="0.651"><g transform="translate(98.648723, 71.506594)"><g><path d="M 1.4375 0 L 0.40625 0 L 0.40625 -4.03125 L 1.4375 -4.03125 Z M 1.4375 0 "/></g></g></g><g fill="#000000" fill-opacity="0.651"><g transform="translate(101.345056, 71.506594)"><g><path d="M 2.296875 -4.078125 C 2.597656 -4.078125 2.890625 -4.015625 3.171875 -3.890625 C 3.460938 -3.765625 3.710938 -3.597656 3.921875 -3.390625 L 3.328125 -2.6875 C 3.191406 -2.84375 3.03125 -2.96875 2.84375 -3.0625 C 2.664062 -3.164062 2.488281 -3.21875 2.3125 -3.21875 C 1.988281 -3.21875 1.71875 -3.101562 1.5 -2.875 C 1.289062 -2.644531 1.1875 -2.367188 1.1875 -2.046875 C 1.1875 -1.703125 1.289062 -1.414062 1.5 -1.1875 C 1.71875 -0.96875 1.988281 -0.859375 2.3125 -0.859375 C 2.476562 -0.859375 2.648438 -0.898438 2.828125 -0.984375 C 3.015625 -1.066406 3.179688 -1.179688 3.328125 -1.328125 L 3.921875 -0.6875 C 3.703125 -0.46875 3.441406 -0.289062 3.140625 -0.15625 C 2.847656 -0.0195312 2.554688 0.046875 2.265625 0.046875 C 1.648438 0.046875 1.140625 -0.148438 0.734375 -0.546875 C 0.335938 -0.941406 0.140625 -1.4375 0.140625 -2.03125 C 0.140625 -2.613281 0.34375 -3.097656 0.75 -3.484375 C 1.164062 -3.878906 1.679688 -4.078125 2.296875 -4.078125 Z M 2.296875 -4.078125 "/></g></g></g><g fill="#000000" fill-opacity="0.651"><g transform="translate(106.195859, 71.506594)"><g><path d="M 1.4375 0 L 0.40625 0 L 0.40625 -4.03125 L 1.4375 -4.03125 Z M 1.4375 0 "/></g></g></g><g fill="#000000" fill-opacity="0.651"><g transform="translate(108.892192, 71.506594)"><g><path d="M 4.125 0 L 3.21875 0 L 1.359375 -2.484375 L 1.359375 0 L 0.40625 0 L 0.40625 -4.03125 L 1.3125 -4.03125 L 3.171875 -1.546875 L 3.171875 -4.03125 L 4.125 -4.03125 Z M 4.125 0 "/></g></g></g><g fill="#000000" fill-opacity="0.651"><g transform="translate(114.284492, 71.506594)"><g><path d="M 3.5625 -3.234375 L 1.4375 -3.234375 L 1.4375 -2.421875 L 3.359375 -2.421875 L 3.359375 -1.625 L 1.4375 -1.625 L 1.4375 -0.8125 L 3.625 -0.8125 L 3.625 0 L 0.40625 0 L 0.40625 -4.03125 L 3.5625 -4.03125 Z M 3.5625 -3.234375 "/></g></g></g><g fill="#ffffff" fill-opacity="1"><g transform="translate(82.126291, 71.366154)"><g><path d="M 4.84375 0 L 3.9375 0 L 3.921875 -2.625 L 2.953125 -0.40625 L 2.28125 -0.40625 L 1.328125 -2.625 L 1.328125 0 L 0.40625 0 L 0.40625 -4.046875 L 1.53125 -4.046875 L 2.625 -1.640625 L 3.71875 -4.046875 L 4.84375 -4.046875 Z M 4.84375 0 "/></g></g></g><g fill="#ffffff" fill-opacity="1"><g transform="translate(88.232906, 71.366154)"><g><path d="M 3.5625 -3.234375 L 1.4375 -3.234375 L 1.4375 -2.421875 L 3.359375 -2.421875 L 3.359375 -1.625 L 1.4375 -1.625 L 1.4375 -0.8125 L 3.625 -0.8125 L 3.625 0 L 0.40625 0 L 0.40625 -4.03125 L 3.5625 -4.03125 Z M 3.5625 -3.234375 "/></g></g></g><g fill="#ffffff" fill-opacity="1"><g transform="translate(92.980018, 71.366154)"><g><path d="M 0.40625 -4.03125 L 2.140625 -4.03125 C 2.773438 -4.03125 3.289062 -3.84375 3.6875 -3.46875 C 4.082031 -3.101562 4.28125 -2.617188 4.28125 -2.015625 C 4.28125 -1.421875 4.078125 -0.9375 3.671875 -0.5625 C 3.273438 -0.1875 2.75 0 2.09375 0 L 0.40625 0 Z M 1.4375 -3.21875 L 1.4375 -0.8125 L 2.15625 -0.8125 C 2.476562 -0.8125 2.738281 -0.921875 2.9375 -1.140625 C 3.132812 -1.367188 3.234375 -1.660156 3.234375 -2.015625 C 3.234375 -2.367188 3.128906 -2.65625 2.921875 -2.875 C 2.710938 -3.101562 2.441406 -3.21875 2.109375 -3.21875 Z M 1.4375 -3.21875 "/></g></g></g><g fill="#ffffff" fill-opacity="1"><g transform="translate(98.262865, 71.366154)"><g><path d="M 1.4375 0 L 0.40625 0 L 0.40625 -4.03125 L 1.4375 -4.03125 Z M 1.4375 0 "/></g></g></g><g fill="#ffffff" fill-opacity="1"><g transform="translate(100.959198, 71.366154)"><g><path d="M 2.296875 -4.078125 C 2.597656 -4.078125 2.890625 -4.015625 3.171875 -3.890625 C 3.460938 -3.765625 3.710938 -3.597656 3.921875 -3.390625 L 3.328125 -2.6875 C 3.191406 -2.84375 3.03125 -2.96875 2.84375 -3.0625 C 2.664062 -3.164062 2.488281 -3.21875 2.3125 -3.21875 C 1.988281 -3.21875 1.71875 -3.101562 1.5 -2.875 C 1.289062 -2.644531 1.1875 -2.367188 1.1875 -2.046875 C 1.1875 -1.703125 1.289062 -1.414062 1.5 -1.1875 C 1.71875 -0.96875 1.988281 -0.859375 2.3125 -0.859375 C 2.476562 -0.859375 2.648438 -0.898438 2.828125 -0.984375 C 3.015625 -1.066406 3.179688 -1.179688 3.328125 -1.328125 L 3.921875 -0.6875 C 3.703125 -0.46875 3.441406 -0.289062 3.140625 -0.15625 C 2.847656 -0.0195312 2.554688 0.046875 2.265625 0.046875 C 1.648438 0.046875 1.140625 -0.148438 0.734375 -0.546875 C 0.335938 -0.941406 0.140625 -1.4375 0.140625 -2.03125 C 0.140625 -2.613281 0.34375 -3.097656 0.75 -3.484375 C 1.164062 -3.878906 1.679688 -4.078125 2.296875 -4.078125 Z M 2.296875 -4.078125 "/></g></g></g><g fill="#ffffff" fill-opacity="1"><g transform="translate(105.810001, 71.366154)"><g><path d="M 1.4375 0 L 0.40625 0 L 0.40625 -4.03125 L 1.4375 -4.03125 Z M 1.4375 0 "/></g></g></g><g fill="#ffffff" fill-opacity="1"><g transform="translate(108.506334, 71.366154)"><g><path d="M 4.125 0 L 3.21875 0 L 1.359375 -2.484375 L 1.359375 0 L 0.40625 0 L 0.40625 -4.03125 L 1.3125 -4.03125 L 3.171875 -1.546875 L 3.171875 -4.03125 L 4.125 -4.03125 Z M 4.125 0 "/></g></g></g><g fill="#ffffff" fill-opacity="1"><g transform="translate(113.898634, 71.366154)"><g><path d="M 3.5625 -3.234375 L 1.4375 -3.234375 L 1.4375 -2.421875 L 3.359375 -2.421875 L 3.359375 -1.625 L 1.4375 -1.625 L 1.4375 -0.8125 L 3.625 -0.8125 L 3.625 0 L 0.40625 0 L 0.40625 -4.03125 L 3.5625 -4.03125 Z M 3.5625 -3.234375 "/></g></g></g></svg>